<?xml version="1.0" encoding="UTF-8" standalone="no"?>
<!DOCTYPE svg PUBLIC "-//W3C//DTD SVG 1.1//EN" "http://www.w3.org/Graphics/SVG/1.1/DTD/svg11.dtd">
<!-- Created with Vectornator (http://vectornator.io/) -->
<svg height="100%" stroke-miterlimit="10" style="fill-rule:nonzero;clip-rule:evenodd;stroke-linecap:round;stroke-linejoin:round;" version="1.1" viewBox="0 0 32 32" width="100%" xml:space="preserve" xmlns="http://www.w3.org/2000/svg" xmlns:vectornator="http://vectornator.io" xmlns:xlink="http://www.w3.org/1999/xlink">
<defs/>
<g id="Layer-2-copy-copy" vectornator:layerName="Layer 2 copy copy">
<g opacity="1" vectornator:layerName="Group 10">
<path d="M15.4541 23.0456C15.4541 18.9035 18.812 15.5456 22.9541 15.5456C27.0962 15.5456 30.4541 18.9035 30.4541 23.0456C30.4541 27.1878 27.0962 30.5456 22.9541 30.5456C18.812 30.5456 15.4541 27.1878 15.4541 23.0456Z" fill="#952f2f" fill-rule="nonzero" opacity="1" stroke="#000000" stroke-linecap="butt" stroke-linejoin="round" stroke-width="1.5" vectornator:layerName="Oval 3"/>
</g>
<g opacity="1" vectornator:layerName="Group 9">
<path d="M15.2625 9.69458C15.2625 5.55244 18.6204 2.19458 22.7625 2.19458C26.9046 2.19458 30.2625 5.55244 30.2625 9.69458C30.2625 13.8367 26.9046 17.1946 22.7625 17.1946C18.6204 17.1946 15.2625 13.8367 15.2625 9.69458Z" fill="#fccc8e" fill-rule="nonzero" opacity="1" stroke="#000000" stroke-linecap="butt" stroke-linejoin="round" stroke-width="1.5" vectornator:layerName="Oval 2"/>
</g>
<g opacity="1" vectornator:layerName="Group 13">
<path d="M1.48354 9.67846C1.48354 5.53632 4.8414 2.17846 8.98354 2.17846C13.1257 2.17846 16.4835 5.53632 16.4835 9.67846C16.4835 13.8206 13.1257 17.1785 8.98354 17.1785C4.8414 17.1785 1.48354 13.8206 1.48354 9.67846Z" fill="#065e1e" fill-rule="nonzero" opacity="1" stroke="#000000" stroke-linecap="butt" stroke-linejoin="round" stroke-width="1.5" vectornator:layerName="Oval 1"/>
</g>
</g>
</svg>
